<svg width="300" height="203" viewBox="0 0 300 203" fill="none" xmlns="http://www.w3.org/2000/svg">
<g clip-path="url(#clip0)">
<path d="M262.162 133.82V135.344C262.162 144.994 262.162 154.644 262.162 164.294C262.162 165.864 261.968 167.348 260.338 167.949C258.547 168.617 256.615 168.771 255.032 167.495C254.368 166.861 253.979 165.993 253.949 165.075C253.882 152.538 253.895 139.995 253.909 127.458C253.888 127.048 253.951 126.639 254.096 126.255C254.24 125.871 254.463 125.522 254.749 125.228C255.035 124.934 255.379 124.703 255.759 124.548C256.139 124.394 256.546 124.32 256.956 124.33C259.449 124.23 261.955 124.27 264.454 124.33C265.858 124.33 266.733 125.206 267.462 126.335C272.915 134.992 278.388 143.635 283.881 152.265C284.162 152.706 284.443 153.147 284.73 153.601L285.111 153.534V152.044C285.111 144.149 285.111 136.261 285.111 128.38C285.111 126.823 285.351 125.326 286.942 124.705C288.72 124.036 290.678 123.809 292.288 125.066C293.027 125.762 293.46 126.724 293.491 127.739C293.567 140.137 293.578 152.532 293.524 164.922C293.524 167.06 292.241 168.263 290.11 168.35H289.963C283.327 168.35 284.382 168.791 281.221 163.672C275.274 154.053 269.333 144.434 263.398 134.816C263.165 134.435 262.891 134.074 262.637 133.706L262.162 133.82Z" fill="#25282B"/>
<path d="M166.631 146.136C166.631 140.215 166.631 134.292 166.631 128.367C166.631 125.433 167.781 124.257 170.735 124.29C177.417 124.37 184.14 124.417 190.837 124.658C192.489 124.826 194.104 125.264 195.615 125.954C202.024 128.46 202.07 137.054 197.7 140.656C196.836 141.375 195.884 141.979 194.866 142.454C194.69 142.506 194.526 142.593 194.385 142.711C194.244 142.829 194.129 142.975 194.047 143.139C193.965 143.303 193.918 143.483 193.908 143.666C193.898 143.85 193.926 144.033 193.991 144.205C194.257 144.688 194.662 145.079 195.154 145.328C195.56 145.493 195.984 145.611 196.417 145.682C200.092 146.878 202.906 148.97 203.581 153.033C204.362 157.805 203.053 161.841 199.07 164.821C196.39 166.845 193.144 167.976 189.787 168.056C183.238 168.256 176.682 168.276 170.127 168.29C167.854 168.29 166.638 166.88 166.631 164.474C166.623 158.366 166.623 152.253 166.631 146.136ZM176.027 155.071C176.027 157.023 176.068 158.981 176.027 160.939C175.994 161.995 176.308 162.416 177.438 162.382C180.271 162.295 183.111 162.416 185.938 162.275C187.296 162.197 188.632 161.899 189.894 161.393C193.042 160.13 194.338 157.611 193.957 153.942C193.63 150.861 191.826 148.789 188.431 148.462C184.601 148.094 180.725 148.188 176.876 148.168C176.602 148.168 176.101 148.836 176.088 149.204C175.987 151.175 176.027 153.133 176.027 155.071ZM176.027 136.259C176.027 138.023 175.981 139.788 176.061 141.545C176.061 141.933 176.562 142.635 176.823 142.628C180.05 142.574 183.312 142.688 186.479 142.22C189.647 141.752 191.197 139.347 191.05 135.738C191.059 134.392 190.55 133.095 189.628 132.114C188.706 131.134 187.442 130.546 186.098 130.472C183.075 130.234 180.042 130.149 177.01 130.218C176.682 130.218 176.094 130.886 176.074 131.26C175.967 132.945 176.027 134.615 176.027 136.279V136.259Z" fill="#25282B"/>
<path d="M0.00267312 146.337V128.574C0.00267312 125.547 1.25904 124.257 4.29971 124.317C10.361 124.437 16.4423 124.317 22.4702 124.872C31.6925 125.707 38.4087 131.554 40.6341 139.988C43.08 149.264 39.9658 158.854 32.7216 164.14C28.8256 166.987 24.308 168.036 19.6033 168.23C14.4776 168.444 9.33854 168.41 4.23288 168.457C1.3125 168.457 0.0427699 167.194 0.0427699 164.253C0.00712832 158.288 -0.00623727 152.316 0.00267312 146.337ZM9.60585 162.376C13.4217 162.135 17.1374 162.269 20.6926 161.587C25.8985 160.591 29.3468 157.236 30.7903 152.064C31.6285 148.9 31.7473 145.589 31.1378 142.374C30.122 136.613 26.8475 132.617 21.1671 131.327C17.4715 130.492 13.5487 130.659 9.60585 130.352V162.376Z" fill="#BD8B13"/>
<path d="M227.725 158.814C224.985 158.814 222.239 158.847 219.499 158.814C219.115 158.754 218.722 158.846 218.404 159.069C218.085 159.291 217.864 159.629 217.788 160.01C217.18 161.961 216.505 163.906 215.783 165.831C214.821 168.504 209.715 169.392 207.871 167.241C206.902 166.111 206.962 164.841 207.45 163.512C211.321 153.006 215.184 142.496 219.038 131.982C219.706 130.238 220.374 128.507 220.956 126.75C221.143 126.03 221.57 125.397 222.167 124.954C222.764 124.512 223.495 124.287 224.237 124.317C226.636 124.277 229.035 124.317 231.434 124.317C232.152 124.292 232.858 124.506 233.441 124.926C234.024 125.346 234.451 125.947 234.655 126.636C239.191 138.972 243.728 151.313 248.268 163.659C249.237 166.332 247.861 168.263 245.061 168.337C244.392 168.337 243.791 168.337 243.156 168.337C241.198 168.296 240.162 167.555 239.534 165.73C238.906 163.906 238.237 162.242 237.756 160.458C237.395 159.121 236.68 158.733 235.344 158.787C232.824 158.887 230.272 158.814 227.725 158.814ZM235.203 152.853C232.711 145.608 230.305 138.598 227.892 131.588H227.471L220.247 152.826L235.203 152.853Z" fill="#25282B"/>
<path d="M140.522 158.814C137.849 158.814 135.135 158.854 132.442 158.814C132.228 158.779 132.01 158.788 131.799 158.839C131.589 158.89 131.391 158.982 131.216 159.11C131.041 159.238 130.894 159.399 130.782 159.585C130.67 159.77 130.596 159.976 130.564 160.19C130.016 162.015 129.328 163.792 128.693 165.59C128.597 165.918 128.479 166.24 128.339 166.552C127.484 168.323 124.182 169.078 121.736 168.076C120.012 167.368 119.458 165.67 120.259 163.492C124.737 151.329 129.219 139.166 133.705 127.004C134.521 124.798 135.276 124.277 137.648 124.27C139.8 124.27 141.958 124.27 144.11 124.27C146.008 124.304 146.837 124.939 147.499 126.723C151.996 138.919 156.413 151.155 161.031 163.304C162.281 166.606 160.082 168.651 157.409 168.323C156.834 168.256 156.24 168.323 155.652 168.323C154.936 168.342 154.234 168.12 153.659 167.694C153.084 167.268 152.668 166.661 152.477 165.971C151.809 163.966 151.074 162.008 150.432 160.003C150.364 159.622 150.149 159.283 149.835 159.057C149.521 158.832 149.131 158.737 148.748 158.794C146.022 158.847 143.262 158.814 140.522 158.814ZM133.037 152.799H148.026C145.561 145.615 143.155 138.605 140.756 131.601L140.321 131.648L133.037 152.799Z" fill="#25282B"/>
<path d="M113.002 130.92V164.086C113.002 167.374 112.026 168.337 108.685 168.337H107.656C104.662 168.337 103.566 167.241 103.566 164.28C103.566 153.949 103.566 143.617 103.566 133.285V130.706H102.082C98.9012 130.706 95.7135 130.706 92.5325 130.706C90.3473 130.706 89.0909 129.536 89.0441 127.578C88.9973 125.62 90.3807 124.31 92.5593 124.304C103.038 124.304 113.508 124.304 123.968 124.304C126.254 124.304 127.477 125.48 127.463 127.538C127.45 129.596 126.221 130.699 123.935 130.712H113.503C113.329 130.763 113.161 130.833 113.002 130.92Z" fill="#25282B"/>
<path d="M76.6075 161.801C77.3226 161.841 77.8973 161.901 78.472 161.901H94.631C96.9967 161.901 98.1061 162.91 98.1127 165.055C98.1194 167.2 96.97 168.323 94.6911 168.33C86.7074 168.33 78.7237 168.33 70.74 168.33C68.3409 168.33 67.2783 167.234 67.2783 164.795C67.2783 152.458 67.2783 140.12 67.2783 127.779C67.2783 125.326 68.3008 124.317 70.7667 124.284C71.6489 124.284 72.531 124.284 73.4399 124.284C75.6184 124.357 76.6276 125.4 76.6276 127.625C76.6276 138.344 76.6276 149.068 76.6276 159.796L76.6075 161.801Z" fill="#25282B"/>
<path d="M34.1919 168.17L40.9883 161.614C41.5598 161.76 42.1438 161.852 42.7325 161.888C48.2659 161.888 53.7992 161.888 59.3326 161.921C61.7985 161.921 63.2621 163.926 62.4735 166.185C62.2734 166.824 61.8673 167.38 61.3184 167.764C60.7696 168.149 60.1089 168.34 59.4395 168.31C51.2664 168.35 43.0867 168.31 34.9136 168.31C34.6684 168.292 34.4261 168.245 34.1919 168.17Z" fill="#25282B"/>
<path d="M41.1486 130.833L34.272 124.424C34.6312 124.352 34.9953 124.307 35.3613 124.29C43.2336 124.29 51.1059 124.29 58.9783 124.29C61.3239 124.29 62.8075 125.7 62.6872 127.692C62.5736 129.496 61.2371 130.679 59.1988 130.686C53.6721 130.686 48.1455 130.686 42.6188 130.686C42.1264 130.708 41.6356 130.757 41.1486 130.833Z" fill="#25282B"/>
<path d="M45.5257 147.794L45.1782 141.412H50.618C52.9637 141.412 55.296 141.412 57.655 141.412C59.8135 141.412 61.1367 142.594 61.1835 144.486C61.2303 146.377 59.847 147.74 57.6617 147.78C54.6812 147.834 51.7006 147.78 48.7201 147.78L45.5257 147.794Z" fill="#25282B"/>
<path fill-rule="evenodd" clip-rule="evenodd" d="M153.874 40.7553C173.795 36.9061 212.636 29.1139 226.75 23.7343C240.516 18.4883 245.154 14.9197 246.377 13.7502C247.6 12.5807 250.567 12.4804 249.197 14.0509C247.493 16.0023 240.015 22.0702 214.681 28.5927C194.629 33.6751 174.331 37.7345 153.867 40.7553H153.874Z" fill="#3C3C3B"/>
<path d="M153.874 40.7553C162.094 39.1114 170.305 37.4117 178.507 35.6564C186.707 33.9188 194.9 32.1279 203.046 30.1698C207.116 29.1741 211.186 28.165 215.222 27.0556C219.258 25.9463 223.288 24.7701 227.184 23.2665C231.08 21.7628 234.95 20.1256 238.672 18.241C240.538 17.3123 242.346 16.2701 244.085 15.1201C244.513 14.8261 244.934 14.5321 245.335 14.2113C245.542 14.0509 245.736 13.8838 245.93 13.7234C246.524 13.107 247.307 12.7071 248.155 12.5874C248.45 12.547 248.749 12.547 249.044 12.5874C249.222 12.6153 249.392 12.679 249.545 12.7745C249.639 12.8389 249.721 12.9205 249.785 13.0151C249.839 13.126 249.871 13.2463 249.879 13.3692C249.847 13.7129 249.696 14.0344 249.451 14.2781C249.264 14.4786 249.084 14.6858 248.883 14.8662C248.489 15.2404 248.075 15.5746 247.66 15.902C246.815 16.5431 245.936 17.1387 245.027 17.6863C243.215 18.7672 241.343 19.7445 239.42 20.6134C235.59 22.344 231.663 23.8523 227.659 25.131C219.639 27.7306 211.506 29.722 203.333 31.6066C186.987 35.3356 170.494 38.4899 153.874 40.7553ZM153.874 40.7553C162.174 39.5524 170.421 38.0221 178.64 36.4115C186.86 34.801 195.073 33.0701 203.233 31.1588C211.393 29.2476 219.532 27.2026 227.478 24.583C231.458 23.2926 235.36 21.7754 239.167 20.0387C241.061 19.1718 242.904 18.1967 244.687 17.1183C245.572 16.5927 246.429 16.0194 247.253 15.4008C247.66 15.0881 248.051 14.7535 248.422 14.3984C248.77 14.0709 249.211 13.6165 249.211 13.396C249.211 13.396 249.211 13.396 249.171 13.3626C249.095 13.3287 249.017 13.3018 248.937 13.2824C248.715 13.2538 248.49 13.2538 248.269 13.2824C247.793 13.3502 247.337 13.5188 246.932 13.7769C246.73 13.9171 246.54 14.0736 246.364 14.2447C246.157 14.4251 245.956 14.5989 245.742 14.7593C245.321 15.0867 244.887 15.3941 244.446 15.6882C242.683 16.8457 240.85 17.8946 238.959 18.8291C235.19 20.707 231.308 22.3242 227.391 23.8278C223.475 25.3315 219.406 26.5009 215.362 27.5769C211.319 28.6528 207.236 29.6619 203.153 30.6376C194.993 32.5556 186.793 34.3198 178.58 35.9838C170.367 37.6478 162.114 39.2116 153.874 40.7553Z" fill="#25282B"/>
<path fill-rule="evenodd" clip-rule="evenodd" d="M134.08 27.7306C134.08 27.7306 120.781 18.3079 109.975 20.1323C109.975 20.1323 114.339 10.6962 121.543 10.6427C138.597 10.509 172.486 14.6524 183.612 14.6524C190.963 12.5606 216.699 5.88454 234.676 2.31593C242.775 0.712056 250.661 -0.357191 258.968 0.110604C267.274 0.5784 271.304 4.12028 273.436 8.8918C277.339 17.6195 254.724 31.493 238.645 36.8259C222.566 42.1587 190.128 51.9891 190.128 51.9891C190.128 51.9891 165.723 83.7124 151.796 94.2979C139.025 104.008 131.747 102.912 115.301 103.948C115.301 103.948 127.464 87.6753 131.34 79.001C135.216 70.3267 132.369 64.8535 121.863 63.8511C111.358 62.8487 96.2415 63.0291 76.9817 67.3997C76.9817 67.3997 97.2573 60.7636 119.083 61.579C140.909 62.3943 141.564 69.9859 138.123 77.0897C134.681 84.1935 127.357 94.7256 122.505 99.9917C122.505 99.9917 134.24 102.471 147.9 91.9322C161.559 81.3934 182.109 54.7625 182.109 54.7625L159.3 59.7813C159.3 59.7813 230.853 36.318 239.995 33.0501C249.137 29.7822 262.857 21.3218 268.09 14.0643C270.763 10.3821 269.967 5.77761 265.129 4.59476C259.68 3.36353 254.089 2.88016 248.509 3.15796C239.273 3.71931 224.351 6.73325 200.433 13.1822C176.903 19.5174 149.544 28.5526 131.34 30.6844C121.27 31.8955 111.058 31.0336 101.334 28.1516C91.1693 25.0976 82.6822 19.2033 74.6962 12.9082C73.3062 11.8122 70.5796 10.6494 65.8749 12.9082C61.1702 15.1669 39.6316 27.9177 39.6316 27.9177C39.6316 27.9177 60.6022 13.7168 64.4047 11.6852C68.2072 9.65364 71.7558 7.76909 76.1597 10.8098C80.41 13.7235 99.6899 33.5981 134.08 27.7306ZM174.47 17.4458C117.8 11.4313 120.166 11.3644 113.403 18.495C116.076 18.3613 121.222 18.1608 139.219 26.8151C156.4 23.6274 163.738 20.854 174.47 17.4591V17.4458Z" fill="#25282B"/>
<path fill-rule="evenodd" clip-rule="evenodd" d="M25.8384 63.0959C40.6608 56.9143 58.5172 49.3361 66.0488 42.2657C73.5803 35.1953 67.0445 32.2014 64.9194 31.9407C65.6545 31.7937 70.5529 32.3417 74.1483 37.013C79.6282 44.1302 49.2816 54.9429 25.8384 63.0759V63.0959Z" fill="#BD8B13"/>
</g>
<defs>
<clipPath id="clip0">
<rect width="300" height="203" fill="white"/>
</clipPath>
</defs>
</svg>
